{
	"asset":{
		"generator":"Khronos glTF Blender I/O v3.6.27",
		"version":"2.0"
	},
	"extensionsUsed":[
		"KHR_materials_specular",
		"KHR_materials_ior"
	],
	"scene":0,
	"scenes":[
		{
			"name":"Scene",
			"nodes":[
				0,
				1,
				2,
				3,
				4,
				5,
				6,
				7,
				8,
				9,
				10,
				11
			]
		}
	],
	"nodes":[
		{
			"mesh":0,
			"name":"Handle",
			"translation":[
				-0.011710569262504578,
				0,
				0
			]
		},
		{
			"name":"Front",
			"rotation":[
				0.7071068286895752,
				0,
				0,
				0.7071068286895752
			],
			"translation":[
				-1.6194714307785034,
				-0.721277117729187,
				-9.30455493927002
			]
		},
		{
			"name":"Side",
			"rotation":[
				0.5,
				0.5,
				-0.5,
				0.5000000596046448
			],
			"translation":[
				-9.557355880737305,
				-0.7393801212310791,
				-0.2402767390012741
			]
		},
		{
			"mesh":1,
			"name":"Cylinder",
			"rotation":[
				0.7071068286895752,
				0,
				0,
				0.7071068286895752
			],
			"scale":[
				0.10101905465126038,
				0.10101905465126038,
				0.10101905465126038
			],
			"translation":[
				-0.004657480865716934,
				0.6424859762191772,
				0.9886524081230164
			]
		},
		{
			"mesh":2,
			"name":"Chamber",
			"translation":[
				-0.011710569262504578,
				0,
				0
			]
		},
		{
			"name":"Back",
			"rotation":[
				0.7071068286895752,
				0,
				0,
				0.7071068286895752
			],
			"translation":[
				-1.6194714307785034,
				1.1032320261001587,
				6.332477569580078
			]
		},
		{
			"mesh":3,
			"name":"Back Sights",
			"translation":[
				-0.011710569262504578,
				0,
				0
			]
		},
		{
			"mesh":4,
			"name":"Front Sights",
			"translation":[
				-0.011710569262504578,
				0,
				1.8588765859603882
			]
		},
		{
			"mesh":5,
			"name":"Sights",
			"rotation":[
				0.7071068286895752,
				0,
				0,
				0.7071068286895752
			],
			"scale":[
				0.009753124788403511,
				0.009753124788403511,
				0.009753124788403511
			],
			"translation":[
				0.02991006150841713,
				0.8018604516983032,
				-0.9726049304008484
			]
		},
		{
			"mesh":6,
			"name":"Sights.001",
			"rotation":[
				0.7071068286895752,
				0,
				0,
				0.7071068286895752
			],
			"scale":[
				0.009753124788403511,
				0.009753124788403511,
				0.009753124788403511
			],
			"translation":[
				-0.01073523610830307,
				0.8018604516983032,
				0.8803489208221436
			]
		},
		{
			"mesh":7,
			"name":"Back Sights.001",
			"translation":[
				-0.011710569262504578,
				0,
				0
			]
		},
		{
			"mesh":8,
			"name":"Mag",
			"translation":[
				-0.006852581165730953,
				0.25907811522483826,
				0.07111398875713348
			]
		}
	],
	"materials":[
		{
			"doubleSided":true,
			"name":"Material.001",
			"pbrMetallicRoughness":{
				"baseColorFactor":[
					0.800000011920929,
					0.800000011920929,
					0.800000011920929,
					1
				],
				"metallicFactor":0,
				"roughnessFactor":0.5
			}
		},
		{
			"doubleSided":true,
			"extensions":{
				"KHR_materials_specular":{
					"specularColorFactor":[
						2.371357614441398,
						2.371357614441398,
						2.371357614441398
					]
				},
				"KHR_materials_ior":{
					"ior":1.4500000476837158
				}
			},
			"name":"Material",
			"pbrMetallicRoughness":{
				"baseColorFactor":[
					0,
					0,
					0,
					1
				],
				"metallicFactor":0.4227272868156433
			}
		},
		{
			"doubleSided":true,
			"name":"Material.001",
			"pbrMetallicRoughness":{
				"baseColorFactor":[
					0.800000011920929,
					0.800000011920929,
					0.800000011920929,
					1
				],
				"metallicFactor":0,
				"roughnessFactor":0.5
			}
		},
		{
			"doubleSided":true,
			"name":"Material.002",
			"pbrMetallicRoughness":{
				"baseColorFactor":[
					0.800000011920929,
					0.800000011920929,
					0.800000011920929,
					1
				],
				"metallicFactor":0,
				"roughnessFactor":0.5
			}
		}
	],
	"meshes":[
		{
			"name":"Cube",
			"primitives":[
				{
					"attributes":{
						"POSITION":0,
						"NORMAL":1,
						"TEXCOORD_0":2,
						"TANGENT":3
					},
					"indices":4,
					"material":0
				}
			]
		},
		{
			"name":"Cylinder",
			"primitives":[
				{
					"attributes":{
						"POSITION":5,
						"NORMAL":6,
						"TEXCOORD_0":7,
						"TANGENT":8
					},
					"indices":9
				}
			]
		},
		{
			"name":"Cube.001",
			"primitives":[
				{
					"attributes":{
						"POSITION":10,
						"NORMAL":11,
						"TEXCOORD_0":12,
						"TANGENT":13
					},
					"indices":14,
					"material":1
				}
			]
		},
		{
			"name":"Cube.002",
			"primitives":[
				{
					"attributes":{
						"POSITION":15,
						"NORMAL":16,
						"TEXCOORD_0":17,
						"TANGENT":18
					},
					"indices":19,
					"material":1
				}
			]
		},
		{
			"name":"Cube.003",
			"primitives":[
				{
					"attributes":{
						"POSITION":20,
						"NORMAL":21,
						"TEXCOORD_0":22,
						"TANGENT":23
					},
					"indices":24,
					"material":1
				}
			]
		},
		{
			"name":"Cylinder.001",
			"primitives":[
				{
					"attributes":{
						"POSITION":25,
						"NORMAL":26,
						"TEXCOORD_0":27
					},
					"indices":28,
					"material":0
				}
			]
		},
		{
			"name":"Cylinder.002",
			"primitives":[
				{
					"attributes":{
						"POSITION":29,
						"NORMAL":30,
						"TEXCOORD_0":31
					},
					"indices":32,
					"material":2
				}
			]
		},
		{
			"name":"Cube.004",
			"primitives":[
				{
					"attributes":{
						"POSITION":33,
						"NORMAL":34,
						"TEXCOORD_0":35,
						"TANGENT":36
					},
					"indices":19,
					"material":3
				}
			]
		},
		{
			"name":"Cube.005",
			"primitives":[
				{
					"attributes":{
						"POSITION":37,
						"NORMAL":38,
						"TEXCOORD_0":39,
						"TANGENT":40
					},
					"indices":41,
					"material":1
				}
			]
		}
	],
	"accessors":[
		{
			"bufferView":0,
			"componentType":5126,
			"count":636,
			"max":[
				0.1752234846353531,
				0.5087892413139343,
				1.0377899408340454
			],
			"min":[
				-0.1752234846353531,
				-0.6948730945587158,
				-1.2115097045898438
			],
			"type":"VEC3"
		},
		{
			"bufferView":1,
			"componentType":5126,
			"count":636,
			"type":"VEC3"
		},
		{
			"bufferView":2,
			"componentType":5126,
			"count":636,
			"type":"VEC2"
		},
		{
			"bufferView":3,
			"componentType":5126,
			"count":636,
			"type":"VEC4"
		},
		{
			"bufferView":4,
			"componentType":5123,
			"count":1188,
			"type":"SCALAR"
		},
		{
			"bufferView":5,
			"componentType":5126,
			"count":200,
			"max":[
				1,
				1,
				1.0000005960464478
			],
			"min":[
				-1,
				-14.96715259552002,
				-1
			],
			"type":"VEC3"
		},
		{
			"bufferView":6,
			"componentType":5126,
			"count":200,
			"type":"VEC3"
		},
		{
			"bufferView":7,
			"componentType":5126,
			"count":200,
			"type":"VEC2"
		},
		{
			"bufferView":8,
			"componentType":5126,
			"count":200,
			"type":"VEC4"
		},
		{
			"bufferView":9,
			"componentType":5123,
			"count":384,
			"type":"SCALAR"
		},
		{
			"bufferView":10,
			"componentType":5126,
			"count":125,
			"max":[
				0.17671515047550201,
				0.7669386863708496,
				1.0388673543930054
			],
			"min":[
				-0.17671515047550201,
				0.5129784345626831,
				-1.0465962886810303
			],
			"type":"VEC3"
		},
		{
			"bufferView":11,
			"componentType":5126,
			"count":125,
			"type":"VEC3"
		},
		{
			"bufferView":12,
			"componentType":5126,
			"count":125,
			"type":"VEC2"
		},
		{
			"bufferView":13,
			"componentType":5126,
			"count":125,
			"type":"VEC4"
		},
		{
			"bufferView":14,
			"componentType":5123,
			"count":240,
			"type":"SCALAR"
		},
		{
			"bufferView":15,
			"componentType":5126,
			"count":116,
			"max":[
				0.12039384245872498,
				0.8147717118263245,
				-0.8648116588592529
			],
			"min":[
				-0.12039384245872498,
				0.7645435333251953,
				-0.9825553297996521
			],
			"type":"VEC3"
		},
		{
			"bufferView":16,
			"componentType":5126,
			"count":116,
			"type":"VEC3"
		},
		{
			"bufferView":17,
			"componentType":5126,
			"count":116,
			"type":"VEC2"
		},
		{
			"bufferView":18,
			"componentType":5126,
			"count":116,
			"type":"VEC4"
		},
		{
			"bufferView":19,
			"componentType":5123,
			"count":174,
			"type":"SCALAR"
		},
		{
			"bufferView":20,
			"componentType":5126,
			"count":64,
			"max":[
				0.12039384245872498,
				0.8159356117248535,
				-0.8648116588592529
			],
			"min":[
				-0.12039384245872498,
				0.7649351358413696,
				-0.9951123595237732
			],
			"type":"VEC3"
		},
		{
			"bufferView":21,
			"componentType":5126,
			"count":64,
			"type":"VEC3"
		},
		{
			"bufferView":22,
			"componentType":5126,
			"count":64,
			"type":"VEC2"
		},
		{
			"bufferView":23,
			"componentType":5126,
			"count":64,
			"type":"VEC4"
		},
		{
			"bufferView":24,
			"componentType":5123,
			"count":96,
			"type":"SCALAR"
		},
		{
			"bufferView":25,
			"componentType":5126,
			"count":384,
			"max":[
				1,
				1.0000001192092896,
				1.0000197887420654
			],
			"min":[
				-9.534831047058105,
				-1.0000001192092896,
				-1
			],
			"type":"VEC3"
		},
		{
			"bufferView":26,
			"componentType":5126,
			"count":384,
			"type":"VEC3"
		},
		{
			"bufferView":27,
			"componentType":5126,
			"count":384,
			"type":"VEC2"
		},
		{
			"bufferView":28,
			"componentType":5123,
			"count":744,
			"type":"SCALAR"
		},
		{
			"bufferView":29,
			"componentType":5126,
			"count":192,
			"max":[
				1,
				1,
				1
			],
			"min":[
				-1,
				-1,
				-1
			],
			"type":"VEC3"
		},
		{
			"bufferView":30,
			"componentType":5126,
			"count":192,
			"type":"VEC3"
		},
		{
			"bufferView":31,
			"componentType":5126,
			"count":192,
			"type":"VEC2"
		},
		{
			"bufferView":32,
			"componentType":5123,
			"count":372,
			"type":"SCALAR"
		},
		{
			"bufferView":33,
			"componentType":5126,
			"count":116,
			"max":[
				0.12039384245872498,
				0.8147717118263245,
				-0.8648116588592529
			],
			"min":[
				-0.12039384245872498,
				0.7645435333251953,
				-0.9825553297996521
			],
			"type":"VEC3"
		},
		{
			"bufferView":34,
			"componentType":5126,
			"count":116,
			"type":"VEC3"
		},
		{
			"bufferView":35,
			"componentType":5126,
			"count":116,
			"type":"VEC2"
		},
		{
			"bufferView":36,
			"componentType":5126,
			"count":116,
			"type":"VEC4"
		},
		{
			"bufferView":37,
			"componentType":5126,
			"count":122,
			"max":[
				0.1459309607744217,
				0.23302511870861053,
				-0.3881937563419342
			],
			"min":[
				-0.1459309607744217,
				-1.0449111461639404,
				-1.1911165714263916
			],
			"type":"VEC3"
		},
		{
			"bufferView":38,
			"componentType":5126,
			"count":122,
			"type":"VEC3"
		},
		{
			"bufferView":39,
			"componentType":5126,
			"count":122,
			"type":"VEC2"
		},
		{
			"bufferView":40,
			"componentType":5126,
			"count":122,
			"type":"VEC4"
		},
		{
			"bufferView":41,
			"componentType":5123,
			"count":204,
			"type":"SCALAR"
		}
	],
	"bufferViews":[
		{
			"buffer":0,
			"byteLength":7632,
			"byteOffset":0,
			"target":34962
		},
		{
			"buffer":0,
			"byteLength":7632,
			"byteOffset":7632,
			"target":34962
		},
		{
			"buffer":0,
			"byteLength":5088,
			"byteOffset":15264,
			"target":34962
		},
		{
			"buffer":0,
			"byteLength":10176,
			"byteOffset":20352,
			"target":34962
		},
		{
			"buffer":0,
			"byteLength":2376,
			"byteOffset":30528,
			"target":34963
		},
		{
			"buffer":0,
			"byteLength":2400,
			"byteOffset":32904,
			"target":34962
		},
		{
			"buffer":0,
			"byteLength":2400,
			"byteOffset":35304,
			"target":34962
		},
		{
			"buffer":0,
			"byteLength":1600,
			"byteOffset":37704,
			"target":34962
		},
		{
			"buffer":0,
			"byteLength":3200,
			"byteOffset":39304,
			"target":34962
		},
		{
			"buffer":0,
			"byteLength":768,
			"byteOffset":42504,
			"target":34963
		},
		{
			"buffer":0,
			"byteLength":1500,
			"byteOffset":43272,
			"target":34962
		},
		{
			"buffer":0,
			"byteLength":1500,
			"byteOffset":44772,
			"target":34962
		},
		{
			"buffer":0,
			"byteLength":1000,
			"byteOffset":46272,
			"target":34962
		},
		{
			"buffer":0,
			"byteLength":2000,
			"byteOffset":47272,
			"target":34962
		},
		{
			"buffer":0,
			"byteLength":480,
			"byteOffset":49272,
			"target":34963
		},
		{
			"buffer":0,
			"byteLength":1392,
			"byteOffset":49752,
			"target":34962
		},
		{
			"buffer":0,
			"byteLength":1392,
			"byteOffset":51144,
			"target":34962
		},
		{
			"buffer":0,
			"byteLength":928,
			"byteOffset":52536,
			"target":34962
		},
		{
			"buffer":0,
			"byteLength":1856,
			"byteOffset":53464,
			"target":34962
		},
		{
			"buffer":0,
			"byteLength":348,
			"byteOffset":55320,
			"target":34963
		},
		{
			"buffer":0,
			"byteLength":768,
			"byteOffset":55668,
			"target":34962
		},
		{
			"buffer":0,
			"byteLength":768,
			"byteOffset":56436,
			"target":34962
		},
		{
			"buffer":0,
			"byteLength":512,
			"byteOffset":57204,
			"target":34962
		},
		{
			"buffer":0,
			"byteLength":1024,
			"byteOffset":57716,
			"target":34962
		},
		{
			"buffer":0,
			"byteLength":192,
			"byteOffset":58740,
			"target":34963
		},
		{
			"buffer":0,
			"byteLength":4608,
			"byteOffset":58932,
			"target":34962
		},
		{
			"buffer":0,
			"byteLength":4608,
			"byteOffset":63540,
			"target":34962
		},
		{
			"buffer":0,
			"byteLength":3072,
			"byteOffset":68148,
			"target":34962
		},
		{
			"buffer":0,
			"byteLength":1488,
			"byteOffset":71220,
			"target":34963
		},
		{
			"buffer":0,
			"byteLength":2304,
			"byteOffset":72708,
			"target":34962
		},
		{
			"buffer":0,
			"byteLength":2304,
			"byteOffset":75012,
			"target":34962
		},
		{
			"buffer":0,
			"byteLength":1536,
			"byteOffset":77316,
			"target":34962
		},
		{
			"buffer":0,
			"byteLength":744,
			"byteOffset":78852,
			"target":34963
		},
		{
			"buffer":0,
			"byteLength":1392,
			"byteOffset":79596,
			"target":34962
		},
		{
			"buffer":0,
			"byteLength":1392,
			"byteOffset":80988,
			"target":34962
		},
		{
			"buffer":0,
			"byteLength":928,
			"byteOffset":82380,
			"target":34962
		},
		{
			"buffer":0,
			"byteLength":1856,
			"byteOffset":83308,
			"target":34962
		},
		{
			"buffer":0,
			"byteLength":1464,
			"byteOffset":85164,
			"target":34962
		},
		{
			"buffer":0,
			"byteLength":1464,
			"byteOffset":86628,
			"target":34962
		},
		{
			"buffer":0,
			"byteLength":976,
			"byteOffset":88092,
			"target":34962
		},
		{
			"buffer":0,
			"byteLength":1952,
			"byteOffset":89068,
			"target":34962
		},
		{
			"buffer":0,
			"byteLength":408,
			"byteOffset":91020,
			"target":34963
		}
	],
	"buffers":[
		{
			"byteLength":91428,
			"uri":"Glock-dfc395e43a84d16f65471db0c8d41dc7.bin"
		}
	]
}
