{
	"asset":{
		"generator":"Khronos glTF Blender I/O v3.6.27",
		"version":"2.0"
	},
	"scene":0,
	"scenes":[
		{
			"name":"Scene",
			"nodes":[
				0,
				1,
				2,
				3,
				4,
				5,
				6,
				7,
				8
			]
		}
	],
	"nodes":[
		{
			"mesh":0,
			"name":"Body",
			"rotation":[
				0,
				0.7071068286895752,
				0,
				0.7071067094802856
			],
			"scale":[
				100,
				100,
				100
			],
			"translation":[
				0,
				0,
				1.669842004776001
			]
		},
		{
			"mesh":1,
			"name":"Handguard",
			"rotation":[
				0,
				0.7071068286895752,
				0,
				0.7071067094802856
			],
			"scale":[
				100,
				100,
				100
			],
			"translation":[
				0,
				1.12990140914917,
				2.58969783782959
			]
		},
		{
			"mesh":2,
			"name":"Mag",
			"rotation":[
				0,
				0.7071068286895752,
				0,
				0.7071067094802856
			],
			"scale":[
				100,
				100,
				100
			],
			"translation":[
				0,
				0,
				1.669842004776001
			]
		},
		{
			"mesh":3,
			"name":"Barrel",
			"rotation":[
				0,
				0.7071068286895752,
				0,
				0.7071067094802856
			],
			"scale":[
				100,
				100,
				100
			],
			"translation":[
				0,
				1.135656714439392,
				2.6932780742645264
			]
		},
		{
			"mesh":4,
			"name":"Stock",
			"rotation":[
				0,
				0.7071068286895752,
				0,
				0.7071067094802856
			],
			"scale":[
				100,
				100,
				100
			],
			"translation":[
				0,
				0,
				1.669842004776001
			]
		},
		{
			"mesh":5,
			"name":"RearSight",
			"rotation":[
				0,
				0.7071068286895752,
				0,
				0.7071067094802856
			],
			"scale":[
				100,
				100,
				100
			],
			"translation":[
				-0.006787776947021484,
				1.6621278524398804,
				-0.9589282274246216
			]
		},
		{
			"mesh":6,
			"name":"RearSight.001",
			"rotation":[
				0,
				0.7071068286895752,
				0,
				0.7071067094802856
			],
			"scale":[
				100,
				100,
				100
			],
			"translation":[
				-0.006787776947021484,
				1.6621278524398804,
				4.030917167663574
			]
		},
		{
			"mesh":7,
			"name":"RearSight.002",
			"scale":[
				100,
				100,
				100
			],
			"translation":[
				0.2530365586280823,
				1.6782877445220947,
				-1.0832539796829224
			]
		},
		{
			"mesh":8,
			"name":"RearSight.003",
			"translation":[
				0.25303781032562256,
				1.6817389726638794,
				3.9287590980529785
			]
		}
	],
	"materials":[
		{
			"doubleSided":true,
			"name":"Mat_Dark",
			"pbrMetallicRoughness":{
				"baseColorFactor":[
					0.09850370138883591,
					0.09850370138883591,
					0.09850370138883591,
					1
				],
				"metallicFactor":0,
				"roughnessFactor":0.4000000059604645
			}
		}
	],
	"meshes":[
		{
			"name":"Cube.047",
			"primitives":[
				{
					"attributes":{
						"POSITION":0,
						"NORMAL":1,
						"TEXCOORD_0":2,
						"TANGENT":3
					},
					"indices":4,
					"material":0
				}
			]
		},
		{
			"name":"Cube.048",
			"primitives":[
				{
					"attributes":{
						"POSITION":5,
						"NORMAL":6,
						"TEXCOORD_0":7,
						"TANGENT":8
					},
					"indices":9,
					"material":0
				}
			]
		},
		{
			"name":"Cube.049",
			"primitives":[
				{
					"attributes":{
						"POSITION":10,
						"NORMAL":11,
						"TEXCOORD_0":12,
						"TANGENT":13
					},
					"indices":14,
					"material":0
				}
			]
		},
		{
			"name":"Cylinder.007",
			"primitives":[
				{
					"attributes":{
						"POSITION":15,
						"NORMAL":16,
						"TEXCOORD_0":17,
						"TANGENT":18
					},
					"indices":19,
					"material":0
				}
			]
		},
		{
			"name":"Cube.050",
			"primitives":[
				{
					"attributes":{
						"POSITION":20,
						"NORMAL":21,
						"TEXCOORD_0":22,
						"TANGENT":23
					},
					"indices":24,
					"material":0
				}
			]
		},
		{
			"name":"Cube.051",
			"primitives":[
				{
					"attributes":{
						"POSITION":25,
						"NORMAL":26,
						"TEXCOORD_0":27,
						"TANGENT":28
					},
					"indices":29,
					"material":0
				}
			]
		},
		{
			"name":"Cube.052",
			"primitives":[
				{
					"attributes":{
						"POSITION":30,
						"NORMAL":31,
						"TEXCOORD_0":32,
						"TANGENT":33
					},
					"indices":34,
					"material":0
				}
			]
		},
		{
			"name":"Cube.055",
			"primitives":[
				{
					"attributes":{
						"POSITION":35,
						"NORMAL":36,
						"TEXCOORD_0":37,
						"TANGENT":38
					},
					"indices":39,
					"material":0
				}
			]
		},
		{
			"name":"Cube.056",
			"primitives":[
				{
					"attributes":{
						"POSITION":40,
						"NORMAL":41,
						"TEXCOORD_0":42,
						"TANGENT":43
					},
					"indices":44,
					"material":0
				}
			]
		}
	],
	"accessors":[
		{
			"bufferView":0,
			"componentType":5126,
			"count":4202,
			"max":[
				0.04253912344574928,
				0.01600864715874195,
				0.0031313651707023382
			],
			"min":[
				4.1260122088715434e-05,
				-0.015379375778138638,
				-0.005156634375452995
			],
			"type":"VEC3"
		},
		{
			"bufferView":1,
			"componentType":5126,
			"count":4202,
			"type":"VEC3"
		},
		{
			"bufferView":2,
			"componentType":5126,
			"count":4202,
			"type":"VEC2"
		},
		{
			"bufferView":3,
			"componentType":5126,
			"count":4202,
			"type":"VEC4"
		},
		{
			"bufferView":4,
			"componentType":5123,
			"count":7179,
			"type":"SCALAR"
		},
		{
			"bufferView":5,
			"componentType":5126,
			"count":7854,
			"max":[
				0.010727977380156517,
				0.0047431341372430325,
				0.004834383726119995
			],
			"min":[
				-0.01899191364645958,
				-0.004747997038066387,
				-0.004834383726119995
			],
			"type":"VEC3"
		},
		{
			"bufferView":6,
			"componentType":5126,
			"count":7854,
			"type":"VEC3"
		},
		{
			"bufferView":7,
			"componentType":5126,
			"count":7854,
			"type":"VEC2"
		},
		{
			"bufferView":8,
			"componentType":5126,
			"count":7854,
			"type":"VEC4"
		},
		{
			"bufferView":9,
			"componentType":5123,
			"count":12948,
			"type":"SCALAR"
		},
		{
			"bufferView":10,
			"componentType":5126,
			"count":247,
			"max":[
				0.01244909968227148,
				0.007608728017657995,
				0.0018753332551568747
			],
			"min":[
				0.002106043742969632,
				-0.017544588074088097,
				-0.0018753332551568747
			],
			"type":"VEC3"
		},
		{
			"bufferView":11,
			"componentType":5126,
			"count":247,
			"type":"VEC3"
		},
		{
			"bufferView":12,
			"componentType":5126,
			"count":247,
			"type":"VEC2"
		},
		{
			"bufferView":13,
			"componentType":5126,
			"count":247,
			"type":"VEC4"
		},
		{
			"bufferView":14,
			"componentType":5123,
			"count":426,
			"type":"SCALAR"
		},
		{
			"bufferView":15,
			"componentType":5126,
			"count":220,
			"max":[
				0.0017109131440520287,
				0.001933699008077383,
				0.0018822068814188242
			],
			"min":[
				-0.03000234253704548,
				-0.0018307181308045983,
				-0.001882205018773675
			],
			"type":"VEC3"
		},
		{
			"bufferView":16,
			"componentType":5126,
			"count":220,
			"type":"VEC3"
		},
		{
			"bufferView":17,
			"componentType":5126,
			"count":220,
			"type":"VEC2"
		},
		{
			"bufferView":18,
			"componentType":5126,
			"count":220,
			"type":"VEC4"
		},
		{
			"bufferView":19,
			"componentType":5123,
			"count":420,
			"type":"SCALAR"
		},
		{
			"bufferView":20,
			"componentType":5126,
			"count":232,
			"max":[
				0.06202382594347,
				0.013433956541121006,
				0.003751050215214491
			],
			"min":[
				0.03838074952363968,
				-0.004476177506148815,
				-0.0037510511465370655
			],
			"type":"VEC3"
		},
		{
			"bufferView":21,
			"componentType":5126,
			"count":232,
			"type":"VEC3"
		},
		{
			"bufferView":22,
			"componentType":5126,
			"count":232,
			"type":"VEC2"
		},
		{
			"bufferView":23,
			"componentType":5126,
			"count":232,
			"type":"VEC4"
		},
		{
			"bufferView":24,
			"componentType":5123,
			"count":420,
			"type":"SCALAR"
		},
		{
			"bufferView":25,
			"componentType":5126,
			"count":433,
			"max":[
				0.0025907873641699553,
				0.0006573700811713934,
				0.002598479622974992
			],
			"min":[
				-0.002793252468109131,
				-0.0014986275928094983,
				-0.0028117031324654818
			],
			"type":"VEC3"
		},
		{
			"bufferView":26,
			"componentType":5126,
			"count":433,
			"type":"VEC3"
		},
		{
			"bufferView":27,
			"componentType":5126,
			"count":433,
			"type":"VEC2"
		},
		{
			"bufferView":28,
			"componentType":5126,
			"count":433,
			"type":"VEC4"
		},
		{
			"bufferView":29,
			"componentType":5123,
			"count":744,
			"type":"SCALAR"
		},
		{
			"bufferView":30,
			"componentType":5126,
			"count":433,
			"max":[
				0.0025907873641699553,
				0.0006573700811713934,
				0.002598479622974992
			],
			"min":[
				-0.002793252468109131,
				-0.0014986275928094983,
				-0.0028117031324654818
			],
			"type":"VEC3"
		},
		{
			"bufferView":31,
			"componentType":5126,
			"count":433,
			"type":"VEC3"
		},
		{
			"bufferView":32,
			"componentType":5126,
			"count":433,
			"type":"VEC2"
		},
		{
			"bufferView":33,
			"componentType":5126,
			"count":433,
			"type":"VEC4"
		},
		{
			"bufferView":34,
			"componentType":5123,
			"count":744,
			"type":"SCALAR"
		},
		{
			"bufferView":35,
			"componentType":5126,
			"count":176,
			"max":[
				-0.0017180144786834717,
				0.004350608680397272,
				0.0004309546493459493
			],
			"min":[
				-0.003342715324833989,
				-0.0005976256215944886,
				-0.0006595704471692443
			],
			"type":"VEC3"
		},
		{
			"bufferView":36,
			"componentType":5126,
			"count":176,
			"type":"VEC3"
		},
		{
			"bufferView":37,
			"componentType":5126,
			"count":176,
			"type":"VEC2"
		},
		{
			"bufferView":38,
			"componentType":5126,
			"count":176,
			"type":"VEC4"
		},
		{
			"bufferView":39,
			"componentType":5123,
			"count":324,
			"type":"SCALAR"
		},
		{
			"bufferView":40,
			"componentType":5126,
			"count":298,
			"max":[
				-0.1883845329284668,
				0.39046990871429443,
				0.039057016372680664
			],
			"min":[
				-0.31769120693206787,
				-0.04919242858886719,
				-0.03821372985839844
			],
			"type":"VEC3"
		},
		{
			"bufferView":41,
			"componentType":5126,
			"count":298,
			"type":"VEC3"
		},
		{
			"bufferView":42,
			"componentType":5126,
			"count":298,
			"type":"VEC2"
		},
		{
			"bufferView":43,
			"componentType":5126,
			"count":298,
			"type":"VEC4"
		},
		{
			"bufferView":44,
			"componentType":5123,
			"count":492,
			"type":"SCALAR"
		}
	],
	"bufferViews":[
		{
			"buffer":0,
			"byteLength":50424,
			"byteOffset":0,
			"target":34962
		},
		{
			"buffer":0,
			"byteLength":50424,
			"byteOffset":50424,
			"target":34962
		},
		{
			"buffer":0,
			"byteLength":33616,
			"byteOffset":100848,
			"target":34962
		},
		{
			"buffer":0,
			"byteLength":67232,
			"byteOffset":134464,
			"target":34962
		},
		{
			"buffer":0,
			"byteLength":14358,
			"byteOffset":201696,
			"target":34963
		},
		{
			"buffer":0,
			"byteLength":94248,
			"byteOffset":216056,
			"target":34962
		},
		{
			"buffer":0,
			"byteLength":94248,
			"byteOffset":310304,
			"target":34962
		},
		{
			"buffer":0,
			"byteLength":62832,
			"byteOffset":404552,
			"target":34962
		},
		{
			"buffer":0,
			"byteLength":125664,
			"byteOffset":467384,
			"target":34962
		},
		{
			"buffer":0,
			"byteLength":25896,
			"byteOffset":593048,
			"target":34963
		},
		{
			"buffer":0,
			"byteLength":2964,
			"byteOffset":618944,
			"target":34962
		},
		{
			"buffer":0,
			"byteLength":2964,
			"byteOffset":621908,
			"target":34962
		},
		{
			"buffer":0,
			"byteLength":1976,
			"byteOffset":624872,
			"target":34962
		},
		{
			"buffer":0,
			"byteLength":3952,
			"byteOffset":626848,
			"target":34962
		},
		{
			"buffer":0,
			"byteLength":852,
			"byteOffset":630800,
			"target":34963
		},
		{
			"buffer":0,
			"byteLength":2640,
			"byteOffset":631652,
			"target":34962
		},
		{
			"buffer":0,
			"byteLength":2640,
			"byteOffset":634292,
			"target":34962
		},
		{
			"buffer":0,
			"byteLength":1760,
			"byteOffset":636932,
			"target":34962
		},
		{
			"buffer":0,
			"byteLength":3520,
			"byteOffset":638692,
			"target":34962
		},
		{
			"buffer":0,
			"byteLength":840,
			"byteOffset":642212,
			"target":34963
		},
		{
			"buffer":0,
			"byteLength":2784,
			"byteOffset":643052,
			"target":34962
		},
		{
			"buffer":0,
			"byteLength":2784,
			"byteOffset":645836,
			"target":34962
		},
		{
			"buffer":0,
			"byteLength":1856,
			"byteOffset":648620,
			"target":34962
		},
		{
			"buffer":0,
			"byteLength":3712,
			"byteOffset":650476,
			"target":34962
		},
		{
			"buffer":0,
			"byteLength":840,
			"byteOffset":654188,
			"target":34963
		},
		{
			"buffer":0,
			"byteLength":5196,
			"byteOffset":655028,
			"target":34962
		},
		{
			"buffer":0,
			"byteLength":5196,
			"byteOffset":660224,
			"target":34962
		},
		{
			"buffer":0,
			"byteLength":3464,
			"byteOffset":665420,
			"target":34962
		},
		{
			"buffer":0,
			"byteLength":6928,
			"byteOffset":668884,
			"target":34962
		},
		{
			"buffer":0,
			"byteLength":1488,
			"byteOffset":675812,
			"target":34963
		},
		{
			"buffer":0,
			"byteLength":5196,
			"byteOffset":677300,
			"target":34962
		},
		{
			"buffer":0,
			"byteLength":5196,
			"byteOffset":682496,
			"target":34962
		},
		{
			"buffer":0,
			"byteLength":3464,
			"byteOffset":687692,
			"target":34962
		},
		{
			"buffer":0,
			"byteLength":6928,
			"byteOffset":691156,
			"target":34962
		},
		{
			"buffer":0,
			"byteLength":1488,
			"byteOffset":698084,
			"target":34963
		},
		{
			"buffer":0,
			"byteLength":2112,
			"byteOffset":699572,
			"target":34962
		},
		{
			"buffer":0,
			"byteLength":2112,
			"byteOffset":701684,
			"target":34962
		},
		{
			"buffer":0,
			"byteLength":1408,
			"byteOffset":703796,
			"target":34962
		},
		{
			"buffer":0,
			"byteLength":2816,
			"byteOffset":705204,
			"target":34962
		},
		{
			"buffer":0,
			"byteLength":648,
			"byteOffset":708020,
			"target":34963
		},
		{
			"buffer":0,
			"byteLength":3576,
			"byteOffset":708668,
			"target":34962
		},
		{
			"buffer":0,
			"byteLength":3576,
			"byteOffset":712244,
			"target":34962
		},
		{
			"buffer":0,
			"byteLength":2384,
			"byteOffset":715820,
			"target":34962
		},
		{
			"buffer":0,
			"byteLength":4768,
			"byteOffset":718204,
			"target":34962
		},
		{
			"buffer":0,
			"byteLength":984,
			"byteOffset":722972,
			"target":34963
		}
	],
	"buffers":[
		{
			"byteLength":723956,
			"uri":"M4A1-ff59d93bffff5937c8287ba7858bab47.bin"
		}
	]
}
