{
	"asset":{
		"generator":"Khronos glTF Blender I/O v3.6.27",
		"version":"2.0"
	},
	"scene":0,
	"scenes":[
		{
			"extras":{
				"vrm_addon_extension":{
					"mesh_object_names":[
						{
							"value":"Body",
							"name":"Body"
						},
						{
							"value":"Hands",
							"name":"Hands"
						}
					]
				}
			},
			"name":"Scene",
			"nodes":[
				22
			]
		}
	],
	"nodes":[
		{
			"extras":{
				"vrm_addon_extension":{
					"uuid":"f2f1d65e9d1447389df5b0ae1bdfc22b"
				}
			},
			"name":"Head",
			"rotation":[
				-0.0717875212430954,
				1.1520531538022471e-14,
				-1.71154770356452e-08,
				0.9974199533462524
			],
			"scale":[
				1,
				1,
				0.9999999403953552
			],
			"translation":[
				-3.669564838489547e-16,
				0.16371716558933258,
				0
			]
		},
		{
			"children":[
				0
			],
			"extras":{
				"vrm_addon_extension":{
					"uuid":"e6fe3313ffa847629dfbd2576a7cffff"
				}
			},
			"name":"Neck",
			"rotation":[
				-0.137928307056427,
				-1.5917300843267673e-14,
				-3.2884660328136306e-08,
				0.9904422163963318
			],
			"translation":[
				-8.085459724167278e-15,
				0.45432421565055847,
				2.2351741790771484e-08
			]
		},
		{
			"extras":{
				"vrm_addon_extension":{
					"uuid":"625f8aef3b2347f1813321bc461f358c"
				}
			},
			"name":"Hand R",
			"rotation":[
				0.040763527154922485,
				-6.720574674545787e-08,
				-0.03291614353656769,
				0.9986264705657959
			],
			"scale":[
				1.0000001192092896,
				0.9999999403953552,
				1
			],
			"translation":[
				1.4901161193847656e-08,
				0.44958361983299255,
				5.960464477539063e-08
			]
		},
		{
			"children":[
				2
			],
			"extras":{
				"vrm_addon_extension":{
					"uuid":"47c633a60a2140f4abe13078ad97720f"
				}
			},
			"name":"LowerArm R",
			"rotation":[
				0.021350467577576637,
				-0.0038852740544825792,
				0.01653926819562912,
				0.9996277093887329
			],
			"scale":[
				0.9999998807907104,
				1,
				1
			],
			"translation":[
				6.705522537231445e-08,
				0.4773145318031311,
				2.2351741790771484e-08
			]
		},
		{
			"children":[
				3
			],
			"extras":{
				"vrm_addon_extension":{
					"uuid":"50a2eb4d7c854b5ebdc8d98ac51e4d94"
				}
			},
			"name":"UpperArm R",
			"rotation":[
				0.21593481302261353,
				0.006823486648499966,
				-0.8532233238220215,
				0.47469520568847656
			],
			"translation":[
				0.27971482276916504,
				0.35546377301216125,
				0.011135324835777283
			]
		},
		{
			"extras":{
				"vrm_addon_extension":{
					"uuid":"ffc82c28773949d9af1888543c1eb7d4"
				}
			},
			"name":"Hand L",
			"rotation":[
				0.04076354578137398,
				8.574124166216279e-08,
				0.03291620314121246,
				0.9986264705657959
			],
			"scale":[
				0.9999999403953552,
				1.0000001192092896,
				1
			],
			"translation":[
				7.450580596923828e-09,
				0.4495837688446045,
				-1.4901161193847656e-08
			]
		},
		{
			"children":[
				5
			],
			"extras":{
				"vrm_addon_extension":{
					"uuid":"ad4037f67881490383b20314787de53a"
				}
			},
			"name":"LowerArm L",
			"rotation":[
				0.021350417286157608,
				0.003885270096361637,
				-0.016539273783564568,
				0.9996277093887329
			],
			"translation":[
				-1.4156103134155273e-07,
				0.47731444239616394,
				5.960464477539063e-08
			]
		},
		{
			"children":[
				6
			],
			"extras":{
				"vrm_addon_extension":{
					"uuid":"89125eebcc4b41b6b5e09f25cbb087a7"
				}
			},
			"name":"UpperArm L",
			"rotation":[
				0.215934619307518,
				-0.006823595613241196,
				0.8532233834266663,
				0.47469523549079895
			],
			"translation":[
				-0.27971482276916504,
				0.35546377301216125,
				0.011135198175907135
			]
		},
		{
			"children":[
				1,
				4,
				7
			],
			"extras":{
				"vrm_addon_extension":{
					"uuid":"e9f100a436624ccda6b3669e6aac175c"
				}
			},
			"name":"Spine",
			"rotation":[
				0.15946969389915466,
				4.4984598457278174e-15,
				3.802053072377021e-08,
				0.9872028231620789
			],
			"scale":[
				1,
				0.9999999403953552,
				0.9999999403953552
			],
			"translation":[
				-1.2020767597330706e-15,
				0.27585452795028687,
				9.313225746154785e-10
			]
		},
		{
			"children":[
				8
			],
			"extras":{
				"vrm_addon_extension":{
					"uuid":"ef7459a3017e41cfacfe245d712cf1d8"
				}
			},
			"name":"Torso",
			"rotation":[
				-0.08800695091485977,
				-2.8978237181804395e-14,
				-2.0982493964538662e-08,
				0.9961199164390564
			],
			"scale":[
				1,
				0.9999998807907104,
				0.9999999403953552
			],
			"translation":[
				1.1102230246251565e-16,
				0.3006266951560974,
				-1.862645149230957e-09
			]
		},
		{
			"extras":{
				"vrm_addon_extension":{
					"uuid":"a232548411494813bc1bb8961a434379"
				}
			},
			"name":"Foot R",
			"rotation":[
				0.6717394590377808,
				0.06415695697069168,
				0.033903662115335464,
				0.7372249364852905
			],
			"scale":[
				1.0000001192092896,
				1,
				1
			],
			"translation":[
				2.1886080503463745e-08,
				0.7199150919914246,
				3.026798367500305e-09
			]
		},
		{
			"children":[
				10
			],
			"extras":{
				"vrm_addon_extension":{
					"uuid":"671e2a730ce24325b6e18553661e49d0"
				}
			},
			"name":"Calf R",
			"rotation":[
				-0.14623205363750458,
				0.00011458043445600197,
				0.013313042931258678,
				0.9891607165336609
			],
			"scale":[
				1.0000001192092896,
				1.0000001192092896,
				1.0000001192092896
			],
			"translation":[
				-2.7730067131415126e-08,
				0.44409945607185364,
				-2.35741026699543e-09
			]
		},
		{
			"children":[
				11
			],
			"extras":{
				"vrm_addon_extension":{
					"uuid":"c0a1ad68f3c14903bf2ece5e83d2bc39"
				}
			},
			"name":"Thigh R",
			"rotation":[
				0.9997942447662354,
				0.01620376668870449,
				-0.0012158863246440887,
				0.012141784653067589
			],
			"scale":[
				1.0000005960464478,
				0.9999999403953552,
				1.000000238418579
			],
			"translation":[
				0.12923824787139893,
				-0.17446854710578918,
				0.03592229261994362
			]
		},
		{
			"extras":{
				"vrm_addon_extension":{
					"uuid":"35de89b15f4c4ff39c4a4701522e00e8"
				}
			},
			"name":"Foot L",
			"rotation":[
				0.669568657875061,
				-0.06504146009683609,
				-0.05710134282708168,
				0.737690269947052
			],
			"scale":[
				1,
				1,
				0.9999999403953552
			],
			"translation":[
				-7.974449545145035e-09,
				0.7122779488563538,
				-2.828892320394516e-08
			]
		},
		{
			"children":[
				13
			],
			"extras":{
				"vrm_addon_extension":{
					"uuid":"c2bd1fc4b8674dceac74168ee892e1cb"
				}
			},
			"name":"Calf L",
			"rotation":[
				-0.14679573476314545,
				0.00038078674697317183,
				0.009308800101280212,
				0.9891229867935181
			],
			"scale":[
				1,
				0.9999998211860657,
				0.9999998807907104
			],
			"translation":[
				1.2978944141650572e-08,
				0.4549750089645386,
				2.9685907065868378e-09
			]
		},
		{
			"children":[
				14
			],
			"extras":{
				"vrm_addon_extension":{
					"uuid":"32c60f7a958b42bb85a9add41aa4c4ff"
				}
			},
			"name":"Thigh L",
			"rotation":[
				0.9998971223831177,
				-0.006265033036470413,
				0.0010116543853655457,
				0.012864292599260807
			],
			"scale":[
				1,
				0.9999997615814209,
				1.0000001192092896
			],
			"translation":[
				-0.1292382776737213,
				-0.174468532204628,
				0.035922229290008545
			]
		},
		{
			"children":[
				9,
				12,
				15
			],
			"extras":{
				"vrm_addon_extension":{
					"uuid":"1e101caab3c24b31ab660c3b72f44d63"
				}
			},
			"name":"Pelvis",
			"rotation":[
				0.042149774730205536,
				1.1910337605058885e-07,
				5.0246411475995956e-09,
				0.9991112947463989
			],
			"translation":[
				0,
				0.1820935159921646,
				0
			]
		},
		{
			"extras":{
				"vrm_addon_extension":{
					"uuid":"47cf67b8b4af455e91f54a23802c82fe"
				}
			},
			"name":"LegK.R",
			"rotation":[
				0.7066671252250671,
				0.02493249997496605,
				0.02493249997496605,
				0.7066670656204224
			],
			"translation":[
				0.16577641665935516,
				-1.13242506980896,
				0.1610105037689209
			]
		},
		{
			"extras":{
				"vrm_addon_extension":{
					"uuid":"e8372c601a59438f833ef0d7d1a91c06"
				}
			},
			"name":"LegK.L",
			"rotation":[
				0.7066671252250671,
				-0.024932418018579483,
				-0.024932418018579483,
				0.7066670656204224
			],
			"scale":[
				0.9999999403953552,
				1,
				0.9999999403953552
			],
			"translation":[
				-0.16577641665935516,
				-1.13242506980896,
				0.1610105037689209
			]
		},
		{
			"extras":{
				"vrm_addon_extension":{
					"uuid":"b04f2c4886ed40f0986e966fe8a23c89"
				}
			},
			"name":"PoleTarget R",
			"rotation":[
				-0.7069486975669861,
				0.014950312674045563,
				-0.014950312674045563,
				0.7069487571716309
			],
			"scale":[
				0.9999999403953552,
				1,
				0.9999999403953552
			],
			"translation":[
				0.10519792139530182,
				-0.4378458857536316,
				-0.29547858238220215
			]
		},
		{
			"extras":{
				"vrm_addon_extension":{
					"uuid":"b1923a4309c646759bdd086837161b9c"
				}
			},
			"name":"PoleTarget L",
			"rotation":[
				-0.7069486975669861,
				-0.014950312674045563,
				0.014950312674045563,
				0.7069487571716309
			],
			"scale":[
				0.9999999403953552,
				1,
				0.9999999403953552
			],
			"translation":[
				-0.10519792139530182,
				-0.4378458857536316,
				-0.29547858238220215
			]
		},
		{
			"mesh":0,
			"name":"Body",
			"skin":0
		},
		{
			"children":[
				21,
				16,
				17,
				18,
				19,
				20
			],
			"name":"Armature",
			"translation":[
				0,
				0,
				0.009495057165622711
			]
		}
	],
	"meshes":[
		{
			"name":"Cube.001",
			"primitives":[
				{
					"attributes":{
						"POSITION":0,
						"NORMAL":1,
						"TEXCOORD_0":2,
						"JOINTS_0":3,
						"JOINTS_1":4,
						"WEIGHTS_0":5,
						"WEIGHTS_1":6
					},
					"indices":7
				}
			]
		}
	],
	"skins":[
		{
			"inverseBindMatrices":8,
			"joints":[
				16,
				9,
				8,
				1,
				0,
				4,
				3,
				2,
				7,
				6,
				5,
				12,
				11,
				10,
				15,
				14,
				13,
				17,
				18,
				19,
				20
			],
			"name":"Armature"
		}
	],
	"accessors":[
		{
			"bufferView":0,
			"componentType":5126,
			"count":1438,
			"max":[
				1.1944901943206787,
				1.6929513216018677,
				0.28634169697761536
			],
			"min":[
				-1.1944901943206787,
				-1.256508708000183,
				-0.22051313519477844
			],
			"type":"VEC3"
		},
		{
			"bufferView":1,
			"componentType":5126,
			"count":1438,
			"type":"VEC3"
		},
		{
			"bufferView":2,
			"componentType":5126,
			"count":1438,
			"type":"VEC2"
		},
		{
			"bufferView":3,
			"componentType":5121,
			"count":1438,
			"type":"VEC4"
		},
		{
			"bufferView":4,
			"componentType":5121,
			"count":1438,
			"type":"VEC4"
		},
		{
			"bufferView":5,
			"componentType":5126,
			"count":1438,
			"type":"VEC4"
		},
		{
			"bufferView":6,
			"componentType":5126,
			"count":1438,
			"type":"VEC4"
		},
		{
			"bufferView":7,
			"componentType":5123,
			"count":2154,
			"type":"SCALAR"
		},
		{
			"bufferView":8,
			"componentType":5126,
			"count":21,
			"type":"MAT4"
		}
	],
	"bufferViews":[
		{
			"buffer":0,
			"byteLength":17256,
			"byteOffset":0,
			"target":34962
		},
		{
			"buffer":0,
			"byteLength":17256,
			"byteOffset":17256,
			"target":34962
		},
		{
			"buffer":0,
			"byteLength":11504,
			"byteOffset":34512,
			"target":34962
		},
		{
			"buffer":0,
			"byteLength":5752,
			"byteOffset":46016,
			"target":34962
		},
		{
			"buffer":0,
			"byteLength":5752,
			"byteOffset":51768,
			"target":34962
		},
		{
			"buffer":0,
			"byteLength":23008,
			"byteOffset":57520,
			"target":34962
		},
		{
			"buffer":0,
			"byteLength":23008,
			"byteOffset":80528,
			"target":34962
		},
		{
			"buffer":0,
			"byteLength":4308,
			"byteOffset":103536,
			"target":34963
		},
		{
			"buffer":0,
			"byteLength":1344,
			"byteOffset":107844
		}
	],
	"buffers":[
		{
			"byteLength":109188,
			"uri":"MyFirstHumanBody-68a488f57945377358358a524103c37b.bin"
		}
	]
}
