{
	"asset":{
		"generator":"Khronos glTF Blender I/O v3.6.27",
		"version":"2.0"
	},
	"extensionsUsed":[
		"KHR_lights_punctual"
	],
	"extensionsRequired":[
		"KHR_lights_punctual"
	],
	"extensions":{
		"KHR_lights_punctual":{
			"lights":[
				{
					"color":[
						1,
						1,
						1
					],
					"intensity":54351.41306588226,
					"type":"point",
					"name":"Light"
				}
			]
		}
	},
	"scene":0,
	"scenes":[
		{
			"name":"Scene",
			"nodes":[
				0,
				1,
				2,
				3,
				4,
				5,
				6
			]
		}
	],
	"nodes":[
		{
			"extensions":{
				"KHR_lights_punctual":{
					"light":0
				}
			},
			"name":"Light",
			"rotation":[
				-0.28416627645492554,
				0.7269423007965088,
				0.34203392267227173,
				0.5232754945755005
			],
			"translation":[
				4.076245307922363,
				5.903861999511719,
				-1.0054539442062378
			]
		},
		{
			"camera":0,
			"name":"Camera",
			"rotation":[
				-0.20997299253940582,
				0.3857799470424652,
				0.09062844514846802,
				0.8937962055206299
			],
			"translation":[
				7.358891487121582,
				4.958309173583984,
				6.925790786743164
			]
		},
		{
			"mesh":0,
			"name":"Body"
		},
		{
			"name":"Empty",
			"rotation":[
				0.70710688829422,
				0,
				0,
				0.7071066498756409
			],
			"scale":[
				0.6584272384643555,
				0.6584272384643555,
				0.6584272384643555
			],
			"translation":[
				0.7422338128089905,
				0.3246139883995056,
				3.882617235183716
			]
		},
		{
			"name":"Empty.001",
			"rotation":[
				0.5,
				0.5,
				-0.5000000596046448,
				0.4999999403953552
			],
			"scale":[
				0.6584272384643555,
				0.6584272384643555,
				0.6584272384643555
			],
			"translation":[
				-2.3413009643554688,
				0.3246139883995056,
				0.09416519105434418
			]
		},
		{
			"name":"Empty.002",
			"rotation":[
				0.6863137483596802,
				0.17021609842777252,
				0.17021602392196655,
				0.6863136291503906
			],
			"scale":[
				0.6584272384643555,
				0.6584272384643555,
				0.6584272384643555
			],
			"translation":[
				1.0234899520874023,
				0.6242138147354126,
				3.882617235183716
			]
		},
		{
			"mesh":1,
			"name":"Head",
			"scale":[
				0.22000686824321747,
				0.22000686824321747,
				0.22000686824321747
			],
			"translation":[
				0.003268275875598192,
				1.4765328168869019,
				0.04131267964839935
			]
		}
	],
	"cameras":[
		{
			"name":"Camera",
			"perspective":{
				"aspectRatio":1.7777777777777777,
				"yfov":0.39959652046304894,
				"zfar":100,
				"znear":0.10000000149011612
			},
			"type":"perspective"
		}
	],
	"meshes":[
		{
			"name":"Cube.001",
			"primitives":[
				{
					"attributes":{
						"POSITION":0,
						"NORMAL":1,
						"TEXCOORD_0":2
					},
					"indices":3
				}
			]
		},
		{
			"name":"Cube.002",
			"primitives":[
				{
					"attributes":{
						"POSITION":4,
						"NORMAL":5,
						"TEXCOORD_0":6,
						"TANGENT":7
					},
					"indices":8
				}
			]
		}
	],
	"accessors":[
		{
			"bufferView":0,
			"componentType":5126,
			"count":1010,
			"max":[
				1.1489973068237305,
				1.391452431678772,
				0.25796347856521606
			],
			"min":[
				-1.1489973068237305,
				-1.2546838521957397,
				-0.23000818490982056
			],
			"type":"VEC3"
		},
		{
			"bufferView":1,
			"componentType":5126,
			"count":1010,
			"type":"VEC3"
		},
		{
			"bufferView":2,
			"componentType":5126,
			"count":1010,
			"type":"VEC2"
		},
		{
			"bufferView":3,
			"componentType":5123,
			"count":1512,
			"type":"SCALAR"
		},
		{
			"bufferView":4,
			"componentType":5126,
			"count":160,
			"max":[
				0.6786459684371948,
				1.0454075336456299,
				0.7934756278991699
			],
			"min":[
				-0.7322660684585571,
				-0.7966101765632629,
				-0.8909816145896912
			],
			"type":"VEC3"
		},
		{
			"bufferView":5,
			"componentType":5126,
			"count":160,
			"type":"VEC3"
		},
		{
			"bufferView":6,
			"componentType":5126,
			"count":160,
			"type":"VEC2"
		},
		{
			"bufferView":7,
			"componentType":5126,
			"count":160,
			"type":"VEC4"
		},
		{
			"bufferView":8,
			"componentType":5123,
			"count":240,
			"type":"SCALAR"
		}
	],
	"bufferViews":[
		{
			"buffer":0,
			"byteLength":12120,
			"byteOffset":0,
			"target":34962
		},
		{
			"buffer":0,
			"byteLength":12120,
			"byteOffset":12120,
			"target":34962
		},
		{
			"buffer":0,
			"byteLength":8080,
			"byteOffset":24240,
			"target":34962
		},
		{
			"buffer":0,
			"byteLength":3024,
			"byteOffset":32320,
			"target":34963
		},
		{
			"buffer":0,
			"byteLength":1920,
			"byteOffset":35344,
			"target":34962
		},
		{
			"buffer":0,
			"byteLength":1920,
			"byteOffset":37264,
			"target":34962
		},
		{
			"buffer":0,
			"byteLength":1280,
			"byteOffset":39184,
			"target":34962
		},
		{
			"buffer":0,
			"byteLength":2560,
			"byteOffset":40464,
			"target":34962
		},
		{
			"buffer":0,
			"byteLength":480,
			"byteOffset":43024,
			"target":34963
		}
	],
	"buffers":[
		{
			"byteLength":43504,
			"uri":"MyFirstHumanBodySillyMode-860630c1d7250789cab2426f2bb6cf0c.bin"
		}
	]
}
